<?xml version="1.0" encoding="UTF-8" standalone="no"?>
<svg
   xmlns:dc="http://purl.org/dc/elements/1.1/"
   xmlns:cc="http://creativecommons.org/ns#"
   xmlns:rdf="http://www.w3.org/1999/02/22-rdf-syntax-ns#"
   xmlns:svg="http://www.w3.org/2000/svg"
   xmlns="http://www.w3.org/2000/svg"
   viewBox="0 0 488.76001 682.66669"
   height="682.66669"
   width="488.76001"
   xml:space="preserve"
   id="svg2"
   version="1.1"><metadata
     id="metadata8"><rdf:RDF><cc:Work
         rdf:about=""><dc:format>image/svg+xml</dc:format><dc:type
           rdf:resource="http://purl.org/dc/dcmitype/StillImage" /></cc:Work></rdf:RDF></metadata><defs
     id="defs6" /><g
     transform="matrix(1.3333333,0,0,-1.3333333,0,682.66667)"
     id="g10"><g
       transform="scale(0.1)"
       id="g12"><path
         id="path14"
         style="fill:#131112;fill-opacity:1;fill-rule:nonzero;stroke:none"
         d="m 1832.76,4906.67 c -696.1,0 -1066.662,-557.44 -1066.662,-960 0,-464 668.372,-533.34 1066.662,-533.34 398.3,0 1066.67,69.34 1066.67,533.34 0,387.2 -338.99,960 -1066.67,960 z m 0,-1706.67 c -1113.811,0 -1279.994,467.84 -1279.994,746.67 0,491.94 444.797,1173.33 1279.994,1173.33 790.62,0 1280,-609.07 1280,-1173.33 0,-278.83 -166.18,-746.67 -1280,-746.67" /><path
         id="path16"
         style="fill:#131112;fill-opacity:1;fill-rule:nonzero;stroke:none"
         d="M 615.27,2882.99 C 787.004,1327.15 1290.68,213.332 1832.76,213.332 c 542.3,0 1045.76,1113.598 1217.5,2669.658 -309.98,-69.55 -749.66,-109.66 -1217.5,-109.66 -468.05,0 -907.729,40.11 -1217.49,109.66 z M 1832.76,0 C 1140.71,0 560.871,1205.76 388.496,3002.03 c -3.84,17.28 -3.199,36.05 2.137,54.4 17.277,56.1 76.16,88.53 133.332,70.61 287.359,-87.89 776.745,-140.37 1308.795,-140.37 531.2,0 1020.38,52.48 1308.16,140.16 33.5,10.45 70.62,3.2 98.56,-19.42 27.52,-22.4 42.03,-57.17 38.83,-92.58 C 3107.64,1211.52 2526.74,0 1832.76,0" /><path
         id="path18"
         style="fill:#131112;fill-opacity:1;fill-rule:nonzero;stroke:none"
         d="m 493.672,2917.97 c -16,0 -32.215,3.63 -47.789,11.31 -52.692,26.24 -74.453,90.67 -48.211,143.36 26.453,52.48 90.238,74.03 142.719,47.79 l 0.851,-0.43 c 52.696,-26.45 74.028,-90.45 47.789,-143.15 -18.773,-37.33 -56.535,-58.88 -95.359,-58.88" /><path
         id="path20"
         style="fill:#131112;fill-opacity:1;fill-rule:nonzero;stroke:none"
         d="m 1086.1,2560 c 58.91,0 106.66,-47.76 106.66,-106.67 0,-58.91 -47.75,-106.66 -106.66,-106.66 -58.91,0 -106.67,47.75 -106.67,106.66 0,58.91 47.76,106.67 106.67,106.67" /><path
         id="path22"
         style="fill:#131112;fill-opacity:1;fill-rule:nonzero;stroke:none"
         d="m 1512.76,2560 c 58.91,0 106.67,-47.76 106.67,-106.67 0,-58.91 -47.76,-106.66 -106.67,-106.66 -58.91,0 -106.66,47.75 -106.66,106.66 0,58.91 47.75,106.67 106.66,106.67" /><path
         id="path24"
         style="fill:#131112;fill-opacity:1;fill-rule:nonzero;stroke:none"
         d="m 1939.43,2560 c 58.91,0 106.67,-47.76 106.67,-106.67 0,-58.91 -47.76,-106.66 -106.67,-106.66 -58.91,0 -106.67,47.75 -106.67,106.66 0,58.91 47.76,106.67 106.67,106.67" /><path
         id="path26"
         style="fill:#131112;fill-opacity:1;fill-rule:nonzero;stroke:none"
         d="m 1086.1,3840 c -23.68,0 -47.58,7.89 -67.2,23.89 -45.869,37.34 -52.697,104.54 -15.58,150.19 11.52,14.08 116.91,137.81 281.18,145.07 108.58,3.62 210.98,-41.82 304.85,-138.03 40.96,-42.24 40.11,-109.87 -2.13,-150.83 -42.24,-40.96 -109.87,-40.32 -150.83,2.14 -49.71,50.77 -96,74.88 -142.51,73.6 -69.12,-2.99 -124.58,-66.14 -125.01,-66.78 -21.12,-25.81 -51.84,-39.25 -82.77,-39.25" /><path
         id="path28"
         style="fill:#131112;fill-opacity:1;fill-rule:nonzero;stroke:none"
         d="m 2579.43,3840 c -27.95,0 -55.68,10.88 -76.59,32.43 -48.42,49.92 -91.94,69.97 -139.94,73.17 -71.47,-2.13 -127.79,-66.99 -128.43,-67.63 -38.19,-44.37 -104.53,-50.34 -149.97,-12.58 -44.8,37.76 -51.2,103.89 -13.87,149.12 11.73,14.08 118.19,137.81 282.67,144.42 107.52,4.91 209.92,-42.02 302.93,-138.02 40.96,-42.24 39.89,-109.87 -2.56,-150.83 -20.69,-20.05 -47.57,-30.08 -74.24,-30.08" /><path
         id="path30"
         style="fill:#131112;fill-opacity:1;fill-rule:nonzero;stroke:none"
         d="m 836.07,213.332 c -34.347,0 -68.054,16.637 -88.746,47.578 C 394.684,790.191 129.512,1639.89 0.871094,2653.23 -6.59766,2711.68 34.7891,2765.01 93.2422,2772.48 151.059,2779.95 205.031,2738.56 212.711,2680.11 337.297,1698.77 590.313,881.488 925.031,379.09 957.672,330.031 944.445,263.68 895.379,231.25 877.242,219.09 856.551,213.332 836.07,213.332" /><path
         id="path32"
         style="fill:#131112;fill-opacity:1;fill-rule:nonzero;stroke:none"
         d="m 2829.46,213.332 c -20.48,0 -40.96,5.758 -59.1,17.918 -48.85,32.641 -62.29,98.781 -29.65,147.84 334.72,502.398 587.73,1319.68 712.32,2301.02 7.47,58.45 61.87,99.84 119.47,92.37 58.24,-7.47 99.84,-60.8 92.37,-119.25 C 3536.02,1639.89 3271.06,790.191 2918.42,260.91 c -20.91,-30.941 -54.62,-47.578 -88.96,-47.578" /></g></g></svg>